#Comment line ignore any data following # character 
#Hierarchical Translation and Rotation (.htr) file 
[Header]	
#Header keywords are followed by a single value 
FileType HTR		#Single word string
DataType HTRS		#Translation followed by rotation and scale data
FileVersion 1		#integer
NumSegments 84		#integer
NumFrames 2		#integer
DataFrameRate 30		#integer, data frame rate in this file
EulerRotationOrder ZYX
CalibrationUnits mm
RotationUnits Degrees
GlobalAxisofGravity Y
BoneLengthAxis Y
ScaleFactor 1.00
[SegmentNames&Hierarchy]
#CHILD	PARENT
MASTER GLOBAL
root MASTER
chest root
L_mid_tent01 root
R_mid_tent01 root
spine01 root
Bip01_Neck chest
L_humerus chest
R_humerus chest
weapon_bone chest
Bip01_Head Bip01_Neck
eye_left_bone Bip01_Head
eye_right_bone Bip01_Head
L_forearm L_humerus
L_front_hand L_forearm
L_weapon_bone L_forearm
L_front_hand01_01 L_front_hand
L_front_hand02_01 L_front_hand
L_front_hand03_01 L_front_hand
L_front_hand01_02 L_front_hand01_01
L_front_hand02_02 L_front_hand02_01
L_front_hand03_02 L_front_hand03_01
R_forearm R_humerus
R_front_hand R_forearm
R_weapon_bone R_forearm
R_front_hand01_01 R_front_hand
R_front_hand02_01 R_front_hand
R_front_hand03_01 R_front_hand
R_front_hand01_02 R_front_hand01_01
R_front_hand02_02 R_front_hand02_01
R_front_hand03_02 R_front_hand03_01
null_rope01_connect L_mid_tent01
Rope1_Seg01 null_rope01_connect
Rope1_Seg02 Rope1_Seg01
Rope1_Seg03 Rope1_Seg02
Rope1_Seg04 Rope1_Seg03
Rope1_Seg05 Rope1_Seg04
Rope1_Seg06 Rope1_Seg05
Rope1_Seg07 Rope1_Seg06
Rope1_Seg09 Rope1_Seg07
L_mid_hand01 Rope1_Seg09
L_mid_hand02 Rope1_Seg09
L_mid_hand03 Rope1_Seg09
null_rope02_connect R_mid_tent01
Rope2_Seg01 null_rope02_connect
Rope2_Seg02 Rope2_Seg01
Rope2_Seg03 Rope2_Seg02
Rope2_Seg04 Rope2_Seg03
Rope2_Seg05 Rope2_Seg04
Rope2_Seg06 Rope2_Seg05
Rope2_Seg07 Rope2_Seg06
Rope2_Seg09 Rope2_Seg07
R_mid_hand01 Rope2_Seg09
R_mid_hand02 Rope2_Seg09
R_mid_hand03 Rope2_Seg09
spine02 spine01
spine03 spine02
pelvis spine03
null_rope03_connect pelvis
null_rope04_connect pelvis
Rope3_Seg01 null_rope03_connect
Rope3_Seg02 Rope3_Seg01
Rope3_Seg03 Rope3_Seg02
Rope3_Seg04 Rope3_Seg03
Rope3_Seg05 Rope3_Seg04
Rope3_Seg06 Rope3_Seg05
Rope3_Seg07 Rope3_Seg06
Rope3_Seg08 Rope3_Seg07
Rope3_Seg09 Rope3_Seg08
R_rear_hand01 Rope3_Seg09
R_rear_hand02 Rope3_Seg09
R_rear_hand03 Rope3_Seg09
Rope4_Seg01 null_rope04_connect
Rope4_Seg02 Rope4_Seg01
Rope4_Seg03 Rope4_Seg02
Rope4_Seg04 Rope4_Seg03
Rope4_Seg05 Rope4_Seg04
Rope4_Seg06 Rope4_Seg05
Rope4_Seg07 Rope4_Seg06
Rope4_Seg08 Rope4_Seg07
Rope4_Seg09 Rope4_Seg08
L_rear_hand01 Rope4_Seg09
L_rear_hand02 Rope4_Seg09
L_rear_hand03 Rope4_Seg09
[BasePosition]
#SegmentName Tx, Ty, Tz, Rx, Ry, Rz, BoneLength
MASTER 0.000000 0.000000 0.000000 -90.000000 0.000000 0.000000 10.000000 
root 0.000000 0.000000 0.000000 0.000000 0.000000 0.000000 10.000000 
chest 0.000000 0.000000 0.000000 0.000000 0.000000 0.000000 10.000000 
L_mid_tent01 0.000000 0.000000 0.000000 0.000000 0.000000 0.000000 10.000000 
R_mid_tent01 0.000000 0.000000 0.000000 0.000000 0.000000 0.000000 10.000000 
spine01 0.000000 0.000000 0.000000 0.000000 0.000000 0.000000 10.000000 
Bip01_Neck 0.000000 0.000000 0.000000 0.000000 0.000000 0.000000 10.000000 
L_humerus 0.000000 0.000000 0.000000 0.000000 0.000000 0.000000 10.000000 
R_humerus 0.000000 0.000000 0.000000 0.000000 0.000000 0.000000 10.000000 
weapon_bone 0.000000 0.000000 0.000000 0.000000 0.000000 0.000000 10.000000 
Bip01_Head 0.000000 0.000000 0.000000 0.000000 0.000000 0.000000 10.000000 
eye_left_bone 0.000000 0.000000 0.000000 0.000000 0.000000 0.000000 10.000000 
eye_right_bone 0.000000 0.000000 0.000000 0.000000 0.000000 0.000000 10.000000 
L_forearm 0.000000 0.000000 0.000000 0.000000 0.000000 0.000000 10.000000 
L_front_hand 0.000000 0.000000 0.000000 0.000000 0.000000 0.000000 10.000000 
L_weapon_bone 0.000000 0.000000 0.000000 0.000000 0.000000 0.000000 10.000000 
L_front_hand01_01 0.000000 0.000000 0.000000 0.000000 0.000000 0.000000 10.000000 
L_front_hand02_01 0.000000 0.000000 0.000000 0.000000 0.000000 0.000000 10.000000 
L_front_hand03_01 0.000000 0.000000 0.000000 0.000000 0.000000 0.000000 10.000000 
L_front_hand01_02 0.000000 0.000000 0.000000 0.000000 0.000000 0.000000 10.000000 
L_front_hand02_02 0.000000 0.000000 0.000000 0.000000 0.000000 0.000000 10.000000 
L_front_hand03_02 0.000000 0.000000 0.000000 0.000000 0.000000 0.000000 10.000000 
R_forearm 0.000000 0.000000 0.000000 0.000000 0.000000 0.000000 10.000000 
R_front_hand 0.000000 0.000000 0.000000 0.000000 0.000000 0.000000 10.000000 
R_weapon_bone 0.000000 0.000000 0.000000 0.000000 0.000000 0.000000 10.000000 
R_front_hand01_01 0.000000 0.000000 0.000000 0.000000 0.000000 0.000000 10.000000 
R_front_hand02_01 0.000000 0.000000 0.000000 0.000000 0.000000 0.000000 10.000000 
R_front_hand03_01 0.000000 0.000000 0.000000 0.000000 0.000000 0.000000 10.000000 
R_front_hand01_02 0.000000 0.000000 0.000000 0.000000 0.000000 0.000000 10.000000 
R_front_hand02_02 0.000000 0.000000 0.000000 0.000000 0.000000 0.000000 10.000000 
R_front_hand03_02 0.000000 0.000000 0.000000 0.000000 0.000000 0.000000 10.000000 
null_rope01_connect 0.000000 0.000000 0.000000 0.000000 0.000000 0.000000 10.000000 
Rope1_Seg01 0.000000 0.000000 0.000000 0.000000 0.000000 0.000000 10.000000 
Rope1_Seg02 0.000000 0.000000 0.000000 0.000000 0.000000 0.000000 10.000000 
Rope1_Seg03 0.000000 0.000000 0.000000 0.000000 0.000000 0.000000 10.000000 
Rope1_Seg04 0.000000 0.000000 0.000000 0.000000 0.000000 0.000000 10.000000 
Rope1_Seg05 0.000000 0.000000 0.000000 0.000000 0.000000 0.000000 10.000000 
Rope1_Seg06 0.000000 0.000000 0.000000 0.000000 0.000000 0.000000 10.000000 
Rope1_Seg07 0.000000 0.000000 0.000000 0.000000 0.000000 0.000000 10.000000 
Rope1_Seg09 0.000000 0.000000 0.000000 0.000000 0.000000 0.000000 10.000000 
L_mid_hand01 0.000000 0.000000 0.000000 0.000000 0.000000 0.000000 10.000000 
L_mid_hand02 0.000000 0.000000 0.000000 0.000000 0.000000 0.000000 10.000000 
L_mid_hand03 0.000000 0.000000 0.000000 0.000000 0.000000 0.000000 10.000000 
null_rope02_connect 0.000000 0.000000 0.000000 0.000000 0.000000 0.000000 10.000000 
Rope2_Seg01 0.000000 0.000000 0.000000 0.000000 0.000000 0.000000 10.000000 
Rope2_Seg02 0.000000 0.000000 0.000000 0.000000 0.000000 0.000000 10.000000 
Rope2_Seg03 0.000000 0.000000 0.000000 0.000000 0.000000 0.000000 10.000000 
Rope2_Seg04 0.000000 0.000000 0.000000 0.000000 0.000000 0.000000 10.000000 
Rope2_Seg05 0.000000 0.000000 0.000000 0.000000 0.000000 0.000000 10.000000 
Rope2_Seg06 0.000000 0.000000 0.000000 0.000000 0.000000 0.000000 10.000000 
Rope2_Seg07 0.000000 0.000000 0.000000 0.000000 0.000000 0.000000 10.000000 
Rope2_Seg09 0.000000 0.000000 0.000000 0.000000 0.000000 0.000000 10.000000 
R_mid_hand01 0.000000 0.000000 0.000000 0.000000 0.000000 0.000000 10.000000 
R_mid_hand02 0.000000 0.000000 0.000000 0.000000 0.000000 0.000000 10.000000 
R_mid_hand03 0.000000 0.000000 0.000000 0.000000 0.000000 0.000000 10.000000 
spine02 0.000000 0.000000 0.000000 0.000000 0.000000 0.000000 10.000000 
spine03 0.000000 0.000000 0.000000 0.000000 0.000000 0.000000 10.000000 
pelvis 0.000000 0.000000 0.000000 0.000000 0.000000 0.000000 10.000000 
null_rope03_connect 0.000000 0.000000 0.000000 0.000000 0.000000 0.000000 10.000000 
null_rope04_connect 0.000000 0.000000 0.000000 0.000000 0.000000 0.000000 10.000000 
Rope3_Seg01 0.000000 0.000000 0.000000 0.000000 0.000000 0.000000 10.000000 
Rope3_Seg02 0.000000 0.000000 0.000000 0.000000 0.000000 0.000000 10.000000 
Rope3_Seg03 0.000000 0.000000 0.000000 0.000000 0.000000 0.000000 10.000000 
Rope3_Seg04 0.000000 0.000000 0.000000 0.000000 0.000000 0.000000 10.000000 
Rope3_Seg05 0.000000 0.000000 0.000000 0.000000 0.000000 0.000000 10.000000 
Rope3_Seg06 0.000000 0.000000 0.000000 0.000000 0.000000 0.000000 10.000000 
Rope3_Seg07 0.000000 0.000000 0.000000 0.000000 0.000000 0.000000 10.000000 
Rope3_Seg08 0.000000 0.000000 0.000000 0.000000 0.000000 0.000000 10.000000 
Rope3_Seg09 0.000000 0.000000 0.000000 0.000000 0.000000 0.000000 10.000000 
R_rear_hand01 0.000000 0.000000 0.000000 0.000000 0.000000 0.000000 10.000000 
R_rear_hand02 0.000000 0.000000 0.000000 0.000000 0.000000 0.000000 10.000000 
R_rear_hand03 0.000000 0.000000 0.000000 0.000000 0.000000 0.000000 10.000000 
Rope4_Seg01 0.000000 0.000000 0.000000 0.000000 0.000000 0.000000 10.000000 
Rope4_Seg02 0.000000 0.000000 0.000000 0.000000 0.000000 0.000000 10.000000 
Rope4_Seg03 0.000000 0.000000 0.000000 0.000000 0.000000 0.000000 10.000000 
Rope4_Seg04 0.000000 0.000000 0.000000 0.000000 0.000000 0.000000 10.000000 
Rope4_Seg05 0.000000 0.000000 0.000000 0.000000 0.000000 0.000000 10.000000 
Rope4_Seg06 0.000000 0.000000 0.000000 0.000000 0.000000 0.000000 10.000000 
Rope4_Seg07 0.000000 0.000000 0.000000 0.000000 0.000000 0.000000 10.000000 
Rope4_Seg08 0.000000 0.000000 0.000000 0.000000 0.000000 0.000000 10.000000 
Rope4_Seg09 0.000000 0.000000 0.000000 0.000000 0.000000 0.000000 10.000000 
L_rear_hand01 0.000000 0.000000 0.000000 0.000000 0.000000 0.000000 10.000000 
L_rear_hand02 0.000000 0.000000 0.000000 0.000000 0.000000 0.000000 10.000000 
L_rear_hand03 0.000000 0.000000 0.000000 0.000000 0.000000 0.000000 10.000000 
#Beginning of Data. Separated by tabs
#Fr	Tx	Ty	Tz	Rx	Ry	Rz	SF
[MASTER]
36 -0.001282 8555.563477 9.722996 0.001660 0.001660 0.001660 8555.569336
37 -0.001311 8750.872070 5.050905 0.001660 0.001660 0.001660 8750.873047
[root]
36 -38.330124 67.770386 1545.725830 -91.711243 -25.410746 -75.853081 1547.685547
37 -22.558773 25.518188 1476.150146 -91.719414 -16.388855 -85.214050 1476.542969
[chest]
36 -84.512650 -34.090519 0.000000 -3.419261 0.625230 172.607086 91.129311
37 -84.512650 -34.090519 0.000000 -2.711572 0.270566 170.338654 91.129311
[L_mid_tent01]
36 27.299210 22.179449 -249.918900 -21.644764 21.148516 15.144046 252.381912
37 27.299202 22.179506 -249.918915 -21.171803 16.330051 14.019462 252.381927
[R_mid_tent01]
36 23.228794 24.509907 226.238495 -170.745590 -18.209759 34.318684 228.744751
37 23.228794 24.509907 226.238495 -167.921219 -18.606218 29.227930 228.744751
[spine01]
36 -0.361383 -0.195265 0.000000 0.037717 0.017094 21.792479 0.410763
37 -0.361383 -0.195265 0.000000 0.019841 0.009183 21.922165 0.410763
[Bip01_Neck]
36 165.484543 71.581718 0.000119 175.896118 1.177290 24.871183 180.302734
37 165.484543 71.581718 0.000119 175.896118 1.177290 24.871183 180.302734
[L_humerus]
36 -13.983130 -135.272980 -120.471481 -5.880679 70.805794 84.170830 181.680161
37 -13.983130 -135.272980 -120.471481 -5.670877 69.839760 84.381744 181.680161
[R_humerus]
36 -13.983309 -135.273102 125.287651 -5.548530 -84.872986 96.915642 184.909012
37 -13.983309 -135.273102 125.287651 22.407890 -77.157318 71.177498 184.909012
[weapon_bone]
36 235.964890 -300.705902 0.000000 0.000000 -89.951546 -128.212341 382.234833
37 235.964890 -300.705902 0.000000 0.000000 -89.951546 -128.212341 382.234833
[Bip01_Head]
36 250.626831 147.720337 -7.616882 -7.174276 7.284369 -61.075279 291.020844
37 253.629150 136.869965 -7.053299 -0.379101 6.247538 -62.067062 288.289581
[eye_left_bone]
36 -24.626970 125.451866 -64.772606 0.000000 -90.000000 -99.840431 143.318359
37 -24.626970 125.451866 -64.772606 0.000000 -90.000000 -99.840431 143.318359
[eye_right_bone]
36 -24.626970 125.451866 64.327362 0.000000 -89.960434 80.159386 143.117676
37 -24.626970 125.451866 64.327362 0.000000 -89.960434 80.159386 143.117676
[L_forearm]
36 322.776093 0.000000 -0.000119 0.000382 -0.002316 -108.751389 322.776093
37 322.776093 0.000000 -0.000119 0.000389 -0.002315 -109.085686 322.776093
[L_front_hand]
36 241.149185 -0.042021 -3.300071 -178.667953 -1.835447 -27.422350 241.171753
37 241.149185 -0.042021 -3.300071 -178.667953 -1.835447 -27.422350 241.171753
[L_weapon_bone]
36 156.183838 0.000000 0.000000 0.000014 0.000007 0.000001 156.183838
37 156.183838 0.000000 0.000000 0.000014 0.000007 0.000001 156.183838
[L_front_hand01_01]
36 86.095154 20.947098 -0.655860 -0.366594 -0.477154 75.385574 88.609184
37 86.095154 20.947098 -0.655860 -0.366594 -0.477154 75.385574 88.609184
[L_front_hand02_01]
36 86.935165 -11.437475 24.513514 154.403519 -59.888931 -61.371990 91.046425
37 86.935165 -11.437475 24.513514 154.403519 -59.888931 -61.371990 91.046425
[L_front_hand03_01]
36 86.637497 -14.123976 -20.424902 -153.913849 58.118122 -62.702866 90.126129
37 86.637497 -14.123976 -20.424902 -153.913849 58.118122 -62.702866 90.126129
[L_front_hand01_02]
36 71.020905 -0.000179 0.000030 0.000334 -0.002323 -106.379684 71.020905
37 71.020905 -0.000179 0.000030 0.000334 -0.002323 -106.379684 71.020905
[L_front_hand02_02]
36 71.020927 -0.000119 0.000060 0.000334 -0.002323 -106.379684 71.020927
37 71.020927 -0.000119 0.000060 0.000334 -0.002323 -106.379684 71.020927
[L_front_hand03_02]
36 71.020905 -0.000060 0.000060 0.000334 -0.002323 -106.379684 71.020905
37 71.020905 -0.000060 0.000060 0.000334 -0.002323 -106.379684 71.020905
[R_forearm]
36 322.776428 -0.000060 0.000030 0.203870 0.055864 -106.718826 322.776428
37 322.776428 -0.000060 0.000030 0.203873 0.055853 -106.712654 322.776428
[R_front_hand]
36 238.847015 -0.006795 2.210259 10.305950 5.202819 -46.370056 238.857239
37 238.847015 -0.006795 2.210259 3.841364 2.936049 -48.949219 238.857239
[R_weapon_bone]
36 155.664093 0.002503 -0.000030 0.003487 0.001180 -90.988930 155.664078
37 155.664093 0.002503 -0.000030 0.003487 0.001180 -90.988930 155.664078
[R_front_hand01_01]
36 87.624611 14.231146 22.918642 -154.633499 -59.950619 61.746044 91.683487
37 87.624611 14.231146 22.918642 -154.633499 -59.950619 61.746044 91.683487
[R_front_hand02_01]
36 89.356956 14.367283 -19.491137 154.602661 58.302849 63.744389 92.579636
37 89.356956 14.367283 -19.491137 154.602661 58.302849 63.744389 92.579636
[R_front_hand03_01]
36 87.286232 -22.307278 -0.143439 0.162155 -0.423168 -75.767921 90.091743
37 87.286232 -22.307278 -0.143439 0.162155 -0.423168 -75.767921 90.091743
[R_front_hand01_02]
36 71.020905 0.000060 0.000119 0.002323 -0.000334 106.381714 71.020905
37 71.020905 0.000060 0.000119 0.002323 -0.000334 106.381714 71.020905
[R_front_hand02_02]
36 71.020844 -0.000030 -0.000119 0.002323 -0.000334 106.381714 71.020836
37 71.020844 -0.000030 -0.000119 0.002323 -0.000334 106.381714 71.020836
[R_front_hand03_02]
36 71.020905 0.000000 0.000030 0.002323 -0.000334 106.381714 71.020905
37 71.020905 0.000000 0.000030 0.002323 -0.000334 106.381714 71.020905
[null_rope01_connect]
36 328.732483 0.000000 -0.000238 -150.339111 -67.936531 -110.834755 328.732483
37 328.732483 0.000000 -0.000238 -150.807266 -64.516281 -118.791840 328.732483
[Rope1_Seg01]
36 0.000000 0.000000 0.000000 39.817257 -1.463783 -115.983238 0.000000
37 0.000000 0.000000 0.000000 51.483150 5.138332 -121.246948 0.000000
[Rope1_Seg02]
36 139.999863 -0.000179 0.000000 -1.958378 3.153030 -2.348401 139.999863
37 139.999863 -0.000179 0.000000 -6.462217 2.880252 -0.170880 139.999863
[Rope1_Seg03]
36 139.999924 0.000060 -0.000060 -3.669518 5.049567 -4.153141 139.999924
37 139.999924 0.000060 -0.000060 -10.107392 3.625900 0.103147 139.999924
[Rope1_Seg04]
36 139.999924 -0.000060 -0.000119 -20.622982 8.052398 -5.306038 139.999924
37 139.999924 -0.000060 -0.000119 -17.380604 4.758769 0.836243 139.999924
[Rope1_Seg05]
36 139.999832 0.000119 -0.000060 -30.969419 1.986762 9.653113 139.999832
37 139.999832 0.000119 -0.000060 -1.934894 -0.282185 1.060027 139.999832
[Rope1_Seg06]
36 139.999954 0.000119 -0.000060 -12.935115 -2.743380 12.218470 139.999954
37 139.999954 0.000119 -0.000060 3.352092 -1.785928 0.553105 139.999954
[Rope1_Seg07]
36 139.999985 0.000060 0.000000 -3.368752 -2.467661 5.827358 139.999985
37 139.999985 0.000060 0.000000 -0.097439 -0.704887 0.833155 139.999985
[Rope1_Seg09]
36 121.602913 0.000119 -0.000089 -89.793175 -1.359789 0.847147 121.602913
37 121.602913 0.000119 -0.000089 -89.793175 -1.359789 0.847147 121.602913
[L_mid_hand01]
36 103.859421 1.038730 8.195221 114.520271 -53.310474 -20.623228 104.187431
37 103.859421 1.038730 8.195221 114.520287 -53.310486 -20.623234 104.187431
[L_mid_hand02]
36 105.572853 -4.139662 -10.864139 -155.067673 38.166626 -52.448818 106.211075
37 105.572853 -4.139662 -10.864139 -155.067673 38.166626 -52.448818 106.211075
[L_mid_hand03]
36 104.641464 17.579376 -3.913581 -10.970130 15.317461 57.626949 106.179977
37 104.641464 17.579376 -3.913581 -10.970130 15.317461 57.626949 106.179977
[null_rope02_connect]
36 328.732849 0.000179 -0.000119 -110.255814 58.450996 -8.371784 328.732849
37 328.732849 0.000179 -0.000119 -126.996399 65.822136 -21.412430 328.732849
[Rope2_Seg01]
36 0.000052 -0.000569 0.000144 26.152006 -7.787018 -43.480293 0.000589
37 0.000055 -0.000590 0.000148 62.297569 3.304525 -55.432579 0.000611
[Rope2_Seg02]
36 139.999741 -0.000060 -0.000119 -3.211062 5.992400 -1.380305 139.999756
37 139.999741 -0.000060 -0.000119 9.112564 0.740863 -3.606443 139.999756
[Rope2_Seg03]
36 140.000107 0.000030 0.000000 -4.199719 3.793086 -0.276117 140.000107
37 140.000107 0.000030 0.000000 8.520521 -0.960510 -2.599470 140.000107
[Rope2_Seg04]
36 139.999802 0.000000 -0.000060 -4.932151 4.188450 -0.624626 139.999802
37 139.999802 0.000000 -0.000060 6.835349 0.087611 -2.351614 139.999802
[Rope2_Seg05]
36 139.999985 -0.000060 0.000119 -7.969193 5.456516 -1.296917 139.999985
37 139.999985 -0.000060 0.000119 5.239920 2.889724 -2.718974 139.999985
[Rope2_Seg06]
36 139.999893 -0.000030 -0.000119 -16.504150 3.717902 -0.327714 139.999893
37 139.999893 -0.000030 -0.000119 4.828013 1.738041 -1.846004 139.999893
[Rope2_Seg07]
36 139.999893 0.000060 -0.000060 -31.292742 2.353436 0.529160 139.999893
37 139.999893 0.000060 -0.000060 4.174651 0.731508 -1.149578 139.999893
[Rope2_Seg09]
36 121.338966 0.000089 -0.000060 136.879395 0.546403 -1.506368 121.338966
37 121.338966 0.000089 -0.000060 136.879395 0.546403 -1.506368 121.338966
[R_mid_hand01]
36 104.680779 11.144459 -10.335981 -39.248650 29.171114 33.551922 105.778534
37 104.680779 11.144459 -10.335981 -39.248650 29.171114 33.551922 105.778534
[R_mid_hand02]
36 104.070427 2.443552 8.231699 71.586517 -38.253605 12.182658 104.424065
37 104.070427 2.443552 8.231699 71.586517 -38.253605 12.182658 104.424065
[R_mid_hand03]
36 106.028137 -11.221827 -5.996406 -168.987167 11.419018 -42.774643 106.788818
37 106.028137 -11.221827 -5.996406 -168.987167 11.419018 -42.774643 106.788818
[spine02]
36 129.756927 0.001550 0.000119 0.360042 -6.003795 -11.257607 129.756927
37 129.756927 0.001550 0.000119 0.362581 -4.994626 -12.110653 129.756927
[spine03]
36 78.608559 0.082630 -4.956392 1.834847 3.870273 15.577086 78.764702
37 78.611534 0.081980 -4.927689 1.865748 3.850901 16.025082 78.765862
[pelvis]
36 169.435242 0.051022 0.000000 -0.060032 -0.185473 13.445304 169.435257
37 169.435242 0.051022 0.000000 -0.060256 -0.182849 13.766620 169.435257
[null_rope03_connect]
36 -1.257226 -2.466202 137.391083 93.445724 -74.378471 -17.511778 137.418976
37 -1.257226 -2.466202 137.391083 96.585381 -84.582603 -29.789461 137.418976
[null_rope04_connect]
36 -1.259640 -2.480268 -137.844437 93.445724 -74.378471 -17.511778 137.872513
37 -1.259640 -2.480268 -137.844437 96.585381 -84.582603 -29.789461 137.872513
[Rope3_Seg01]
36 -0.000020 -0.000579 0.000000 -138.172028 -19.669952 -54.279606 0.000580
37 -0.000019 -0.000595 0.000000 -128.144394 8.208162 -62.173641 0.000595
[Rope3_Seg02]
36 139.999924 -0.000119 0.000060 2.888436 -3.561191 6.463802 139.999924
37 139.999924 -0.000119 0.000060 0.313225 3.462386 6.040528 139.999924
[Rope3_Seg03]
36 139.999924 -0.000119 0.000119 1.333511 -0.662038 5.124783 139.999924
37 139.999924 -0.000119 0.000119 0.230585 5.335018 4.910495 139.999924
[Rope3_Seg04]
36 139.999924 0.000119 0.000000 2.708429 -6.508621 10.282535 139.999924
37 139.999924 0.000119 0.000000 0.310574 4.836743 4.262948 139.999924
[Rope3_Seg05]
36 139.999924 -0.000238 0.000060 1.337675 -17.127640 21.364958 139.999924
37 139.999924 -0.000238 0.000060 -2.051621 -8.835123 7.139963 139.999924
[Rope3_Seg06]
36 139.999893 -0.000119 -0.000060 0.097007 -8.278127 12.280849 139.999893
37 139.999893 -0.000119 -0.000060 -2.091044 -11.258520 6.528474 139.999893
[Rope3_Seg07]
36 139.999771 0.000060 -0.000119 -0.095686 -4.726269 7.276939 139.999771
37 139.999771 0.000060 -0.000119 -0.692892 -6.033661 4.149750 139.999771
[Rope3_Seg08]
36 139.999985 -0.000060 0.000000 0.267669 -1.736156 2.688619 139.999985
37 139.999985 -0.000060 0.000000 -0.182728 -3.917870 2.640789 139.999985
[Rope3_Seg09]
36 90.185997 -0.000179 -0.000060 159.792526 -1.358243 -0.846482 90.185997
37 90.185997 -0.000179 -0.000060 159.792526 -1.358243 -0.846482 90.185997
[R_rear_hand01]
36 103.366196 -6.073594 -10.757982 -177.714203 24.565960 -73.910950 104.101845
37 103.366196 -6.073594 -10.757982 -177.714203 24.565960 -73.910950 104.101845
[R_rear_hand02]
36 100.509819 12.039542 -7.992327 -12.874829 36.868488 72.167213 101.543350
37 100.509819 12.039542 -7.992327 -12.874829 36.868488 72.167213 101.543350
[R_rear_hand03]
36 101.539970 5.215704 5.435467 71.484581 -71.816628 21.513813 101.819031
37 101.539970 5.215704 5.435467 71.484619 -71.816643 21.513803 101.819031
[Rope4_Seg01]
36 -0.000001 -0.000581 -0.000153 45.659939 7.108691 -110.456268 0.000601
37 -0.000001 -0.000596 -0.000153 45.867794 21.917631 -107.549629 0.000615
[Rope4_Seg02]
36 139.999985 0.000060 0.000119 0.416308 -0.254124 4.997509 139.999985
37 139.999985 0.000060 0.000119 0.057147 -4.574586 0.469596 139.999985
[Rope4_Seg03]
36 139.999924 0.000000 -0.000238 0.258686 -2.221191 2.821459 139.999924
37 139.999924 0.000000 -0.000238 0.231553 -4.500483 0.195494 139.999924
[Rope4_Seg04]
36 139.999985 0.000000 0.000119 0.233885 -1.525695 1.878161 139.999985
37 139.999985 0.000000 0.000119 0.376011 -4.465600 0.046393 139.999985
[Rope4_Seg05]
36 139.999802 -0.000060 -0.000119 0.210565 5.767435 2.671710 139.999802
37 139.999802 -0.000060 -0.000119 -0.036071 2.742011 0.490561 139.999802
[Rope4_Seg06]
36 139.999924 0.000000 0.000060 0.645541 10.566156 3.469130 139.999924
37 139.999924 0.000000 0.000060 -0.030661 7.822349 0.832386 139.999924
[Rope4_Seg07]
36 139.999802 0.000000 0.000000 0.532750 6.875105 2.570654 139.999802
37 139.999802 0.000000 0.000000 0.239801 5.467493 0.632035 139.999802
[Rope4_Seg08]
36 139.999924 0.000000 0.000119 -1.165801 4.610979 1.741727 139.999924
37 139.999924 0.000000 0.000119 -1.318544 3.191755 0.385500 139.999924
[Rope4_Seg09]
36 90.185791 0.000060 0.000060 -135.617828 2.228885 0.850567 90.185791
37 90.185791 0.000060 0.000060 -135.617828 2.228885 0.850567 90.185791
[L_rear_hand01]
36 101.696655 -8.392275 -7.654577 -19.915020 -33.950905 119.950104 102.329041
37 101.696655 -8.392275 -7.654577 -19.915020 -33.950905 119.950104 102.329041
[L_rear_hand02]
36 102.726799 -1.568258 5.773216 77.862221 61.878510 165.399200 102.900848
37 102.726799 -1.568258 5.773216 77.862221 61.878510 165.399200 102.900848
[L_rear_hand03]
36 104.552910 9.721220 -10.420293 -173.099182 -23.740307 -117.327896 105.519653
37 104.552910 9.721220 -10.420293 -173.099182 -23.740307 -117.327896 105.519653
